<?xml version="1.0" standalone="no"?>
<!DOCTYPE svg PUBLIC "-//W3C//DTD SVG 20010904//EN"
 "http://www.w3.org/TR/2001/REC-SVG-20010904/DTD/svg10.dtd">
<svg version="1.0" xmlns="http://www.w3.org/2000/svg"
 width="512.000000pt" height="512.000000pt" viewBox="0 0 512.000000 512.000000"
 preserveAspectRatio="xMidYMid meet">
<metadata>
Created by potrace 1.16, written by Peter Selinger 2001-2019
</metadata>
<g transform="translate(0.000000,512.000000) scale(0.100000,-0.100000)"
fill="#000000" stroke="none">
<path d="M388 5094 c-178 -43 -329 -201 -367 -382 -8 -38 -11 -657 -11 -2150
0 -2309 -4 -2161 62 -2284 62 -116 199 -220 326 -247 53 -11 883 -17 894 -6 3
3 -161 834 -364 1848 -202 1013 -368 1863 -368 1888 0 168 99 349 239 438 25
16 73 38 106 50 33 11 933 195 2000 408 l1940 387 -51 23 c-28 13 -75 27 -104
33 -34 6 -785 10 -2149 9 -1752 -1 -2105 -3 -2153 -15z"/>
<path d="M3480 4037 c-20 -7 -44 -26 -57 -46 l-23 -34 0 -547 0 -547 23 -34
c44 -66 139 -70 191 -8 l26 31 0 558 0 558 -25 31 c-23 27 -38 35 -85 46 -8 2
-31 -2 -50 -8z"/>
<path d="M1598 3943 c-16 -10 -35 -33 -44 -52 -15 -31 -15 -40 -3 -75 9 -25
27 -49 48 -63 33 -22 41 -23 272 -23 132 0 239 -3 239 -6 0 -3 -122 -164 -272
-357 -149 -194 -280 -367 -291 -386 -43 -71 -20 -152 54 -196 32 -19 52 -20
426 -20 381 0 392 1 420 21 40 30 58 89 41 139 -7 21 -26 48 -41 59 -27 20
-43 21 -298 24 l-270 3 49 62 c169 213 473 614 502 663 48 80 49 140 2 186
l-32 33 -388 2 c-351 3 -390 1 -414 -14z"/>
<path d="M2732 3599 c-73 -29 -163 -118 -202 -201 -130 -281 32 -616 309 -636
82 -5 135 8 199 52 l49 35 22 -29 c42 -58 136 -57 185 1 l26 31 0 336 c0 315
-1 339 -19 368 -39 65 -137 69 -189 9 -29 -33 -31 -33 -47 -15 -10 11 -40 31
-68 45 -67 33 -185 34 -265 4z m242 -213 c125 -52 141 -305 23 -376 -131 -80
-266 10 -267 178 0 159 115 252 244 198z"/>
<path d="M4003 3606 c-107 -35 -194 -114 -245 -223 -43 -91 -51 -227 -19 -331
36 -121 115 -209 236 -264 66 -30 232 -33 310 -5 101 35 208 142 241 239 40
122 36 263 -11 365 -34 75 -115 157 -194 196 -59 29 -75 32 -171 34 -68 2
-120 -2 -147 -11z m205 -220 c67 -35 102 -104 102 -198 -1 -172 -143 -260
-277 -173 -78 52 -95 226 -30 318 43 62 140 87 205 53z"/>
</g>
</svg>
